P1
# CREATOR: GIMP PNM Filter Version 1.1
156 13
1111111111111111111111111111111111111111111111111111111111111111111111
1111111111111111111111111111111111111111111111111111111111111111111111
1111111111111111111111111111111111111111111111111111111111111111111111
1111111111111111111111111111111111111111111111111111111111111111111111
1111111111111111111111111111111111111110111111111111111011111111100111
1111101111111111111111101111110011111111111111111111111111111111111111
1111111111111111111111111111111111111111111111111111111011111111111111
1011111111011011111110111111101111110110111111101111111111111111111111
1111111111111111111111110111111111111111111111111111111111111111111111
1011111111111111101111111101111111111011111111111111111011111110111111
1111111111111111111111111111111111111111011111111111111111111111111111
1111111111110001100001110001110000110001110111110001101001110011111001
1011011110111001011010011100011000011100001010011100011000011011101011
1010111010111010111010000011111010111010111010111010111010000110111010
0110111011111101101011111011101010100110101110101110101110100110101110
1101111011101011101011101101011011101111011100001011101011111011101000
0011011110111010111011101111110110011111101110101010111010111010111010
1110101111110011110111101110101110101010111011101110111011101110101110
1011111011101011111101111011101011101110111111011010111110111010101011
1010111010111010111010111111110111011110111011010110101011101110110011
0111101100101110101110101110101110110111110000101110111011111101101101
1110111010101011101011101000011100001011111011101101101011001101011010
1011010111001010111111001010000111000111000011000111011111111010111011
0001101101101110110001101110101110110001101111111110101111110001111001
1100101110111101011011101111101000001111111111111111111111111111111111
1110111011111111111110110111111111111111111111111111111110111111111011
1111111111111111111111111111111111111111101110111111111111111111111111
1111111111111111111100011111111111111100111111111111111111111111111111
11101111111110111111111111111111111111111111111111111111110001111111