P1
# CREATOR: GIMP PNM Filter Version 1.1
570 13
1111111111111111111111111111111111111111111111111111111111111111111111
1111111111111111111111111111111111111111111111111111111111111111111111
1111111111111111111111111111111111111111111111111111111111111111111111
1111111111111111111111111111111111111111111111111111111111111111111111
1111111111111111111111111111111111111111111111111111111111111111111111
1111111111111111111111111111111111111111111111111111111111111111111111
1111111111111111111111111111111111111111111111111111111111111111111111
1111111111111111111111111111111111111111111111111111111111111111111111
1111111111111111111111111111111111111111111111111111111111111011101111
1111111111111111111111111111111111111111111111111111111111111111111111
1111111111111111111111111111111111111111111111111111111111111111111111
1111111111111111111111111111111111111111111111111111111111111111111111
1111111111111111111111111111111111111111111111111111111111111111111111
1111111111111110001111111110001111111111111111011111111111111111111111
1111111111111111111111111111111111111111111111111111111111111111111111
1111111111111111111111111111111111111111111111111111111111111111111110
0111111100111111111111111111011110101111111111011110110111111111011111
0111110111110111111111111111111111111111111101110111110111100011000001
1110110000011000110000011000111000111111111111111111011111110111111000
1110001111011100001110001100001100000100000110001101110110001111000101
1101011111011101011101100011000011100011000011100011000001011101011101
0111010111010111010000011011110111111110111101111111111110111111110111
1111111111110111111111001111111101111111111111111101111110011111111111
1111111111111111111111111111111111111111111111111111111111111111111111
1111111101111101111101111011011111111101111010111010111000010101011011
1111011111011111011101010111111111111111111111111111110110101110011101
1101111101111011011111011101111101011101011101111111111111111011111111
1011110111010111011010111011010111011011010111110111110111010111011101
1111101101110101111101110100110101110101110101110101110101110111011101
1101011101011101011101011101111101101111011111111011101011111111111111
1111110111111111111111011111111011011111110111111101111110110111111101
1111111111111111111111111111111111111111111110111111111111111111111111
1111111111111111110111110111110111010101111111110111101011101011010111
1010110101111101111011111110111000111101111111111111111111111110110111
0101011101110111101111001101111101111111101101110101110111011111011111
0111111111110111011101011101011101101101011111101101011111011111011111
0111011101111110110110110111110010010011010111010111010111010111010111
1111011101110101110101110110101110101111101110111110111111101101110111
1111111111111111011111111111111101111111101111111111011111111111111111
0111111101111111111111111111111111111111111111111111111011111111111111
1111111111111111111111111111011111011111011101101111111111011111111100
0001010111111011010111111111101111111011010101110111111111111111111111
1110110111011101111111011101111010110100110111111110110111010111011000
1110001110111100000111101111110101100101110110110101111110110101111101
1111011111011101110111111011010111011111010101010101011101011101011101
0111010111111101110111010111010111011010111010111110111011111011111110
1111111111111111111110001100001110001110000110001110111110001101001110
0111110011011011110111001011010011100011000011100001010011100011000011
0111010111010111010111010111010000011101111101111101111111111111111101
1111111110101110001111011110111111111110111111101111011100000111111100
0001111111110111011101110111111011100011101011001101000011110111100011
1000011101111101110111111111111111011110110101010111011000110111111011
0100001100001101111100000111011111101100111101111101010101010101110100
0011011101000011100011110111011101101011010101110111110111110111101111
1101111110111111111111111111111111010111010111010111010111010000110111
0100110111011111101101011111011101010100110101110101110101110100110101
1101101111011101011101011101101011011101111011001111110111111001111111
1111111101111111110000011101011011110101111111111011111110111111111101
1111111111111111111110111101110111011111011111110101101111110101110111
0111011101111101111111111111101111111111111011110111010101000001101101
0111111011010111110111110110010111011101111110110101110111110111010110
0101110101111101110101011111110111011101110110101101010110101111011110
1111101111111011111011111111111111111111100001011101011111011101000001
1011110111010111011101111110110011111101110101010111010111010111010111
0101111110011110111101110101110101010111011101110111011111011111011111
0111111111111111110111111111101011110101101011011001111111101111111011
1111111101111111111111111111111011110111011101111011111111010000011111
0101110110111101110111110111111111111111011100000111011111011101001101
1101101101011111101101011111011111011101011101110111111011011011011111
0111010110010111010111110111010110111111011101110111011010110101011010
1111011110111110111111101111101111111111111111111101110101110101111101
1101011111101111011101011101110111111011010111110111010101011101011101
0111010111010111111110111011110111011010110101011101110110011011111101
1111011111011111111111111111111111111110101100001101010101101111111111
0111110111111111111111110011111111110111011111101011110111011111011101
1110110111010111011011110111010111011101111100111110111111111011111111
1101111101110110110101110110110101111101111101110101110111011101101101
1101011111011101011101011101011111010101011101011101110111011101110111
0101010111011101110111111011111111011110111111111111111111110110010111
0101110101110101110110111110000101110111011111101101101111011101010101
1101011101000011100001011111011101101101011001101011010101101011100101
0111111101111101111101111111111111111101111111111111111101110110111001
0111111111011111011111111111111111011111111110001101111111011100000100
0001100011111011100011100011101111100011100011100011110111111101111111
0111111101111000010111010000111000110000110000010111111000110111011000
1110011101110100000101110101110110001101111110001101110110001111011110
0011110111101011011101110111000001101111111101111011111111111111111111
1001010000111000111000011000111011111111010111011000110110110111011000
1101110101110110001101111111110101111110001111001110010111011110101101
1101111101000001110111110111110111111111111111111111111111111111111111
1111111111111111111110111011111111111111111011111111111101111111111111
1111111111111111111111111111111111111111111111111111111111011110111111
1111111111111111111111111111111111111111111111111111111111111111111111
1111111111111111111111111111111111111111111111111111111111011111111111
1111111111111111111111111111111111111111111110001111111110001111111100
0001111111111111111111111111111111111111111111011101111111111111011011
1111111111111111111111111111110111111111011111111111111111111111111111
1111111111111101110111111111100111111100111111111111111111111111111111
1111111111111111111111111111111111111111111111111111111111111111111111
1111111111111111111111111111111111111111111111111111111111111111111111
1111111111111111111111111111111111111111111111111111111111111111111111
1111111111111111111111111111111111111111111111111111111111111111111111
1111111111111111111111111111111111111111111111111111111111111111111111
1111111111111111111111111111111111111111111111111111111110001111111111
1111100111111111111111111111111111111111011111111101111111111111111111
111111111111111111111111100011111111111111111111111111111111